/* XPM */
static char *result[] = {
/* columns rows colors chars-per-pixel */
"58 53 5 1 ",
"  c #621A8E",
". c #7F38AB",
"X c #A25FC8",
"o c #C88AE8",
"O c None",
/* pixels */
"OOOOOOOOOOOOOOOOOOOOOOOOOOOOOOOOOOOOOOOOOOOOOOOOOOOOOOOOOO",
"OOOOOOOOOOOOOOO.OOOOOOOOOOOOOOOOOOOOOOOOOOOOOOOOOOOOOOOOOO",
"OOOOOOOOOOOOOO..OOOOOOOOOOOOOOOOOOO.....OOOOOOOOOOOOOOOOOO",
"OOOOOOOOOOOOO....OOOOOOOOOOOOOOO.........OOOOOOOOOOOOOOOOO",
"OOOOOOOOOOOO........OOOOOOOOOO......XX....OOOOOOOOOOOOOOOO",
"OOOOOOOOOOOO.XXX......OOOOOOO.....XXooXX...OOOOOOOOOOOOOOO",
"OOOOOOOOOOOO..XoXX.....OOOOO..XXXX..XooXX...OOOOOOOOOOOOOO",
"OOOOOOOOOOOO..XooX.. ...OO..XXoX...XXoooX...OOOOOOOOOOOOOO",
"OOOOOOOOOOOOO.XooX.. X..O..XooX...XXooooX.. .OOOOOOOOOOOOO",
"OOOOOOOOOOOOO.ooXX.  Xo...XooXX..XoooooX.. ..OOOOO.OOOOOOO",
"OOOOOOOOOOOO.oXXX.  ..XX..XoXX..XXXXXXXX...XX..O..OOOOOOOO",
"OOOOOOO.OOO.XXX......... .XoX..XX.XXX.....XXoX....OOOOOOOO",
"OOOOOO..OO..X...XXXXXXX.  XX..XX..  ..XXXXooXX....OOOOOOOO",
"OOOOOO........XooooooooX. ...XX.  ...XXooooXX.....OOOOOOOO",
"OOOOO....X..XoooXXXXXXXoX. ..X..XXX...XoooXX ..X..OOOOOOOO",
"OOOOO..XX..XXXXX..   ..XX. ..X.XooXX..XXoXX ..XXX.OOOOOOOO",
"OOOOO.XoX......   ......XX . ..XoooXX..XXX  ..XoX..OOOOOOO",
"OOOO..XoX...X. ..XXXX.. ....  ..XXX.....  ....XoX..OOOOOOO",
"OOOO..XoX..XX...XXooXX  OO.. . .    . ..X....XooX...OOOOOO",
"OOOO..XooXXX...XoooXXX..OOO.. .....  ..XX...XXooX....OOOOO",
"OOOOO.XXooX...XoooXX...OOOOO....OOO...XXoX..XooX......OOOO",
"OOOOO..XXX...XooXXX  .OOOOOOOOOOOOOO..XooX..XXXX....OOOOOO",
"OOOOOO.. .XXoooXXX ...OOOOOOOOOOOOOO.X.XooX..XX....OOOOOOO",
"OOOOOO..  .XXXXX. ....OOOOOOOOOOOOOO.Xo.XoXX. ....OOOOOOOO",
"OOOOOOO..    .....XX...OOOOOOOOOOOOO.XX.XoXX ....OOOOOOOOO",
"OOOOOOOO........XXooXX..OOOOOOOOOOOO.XX..XX. .XX..OOOOOOOO",
"OOOOOOOOO..X.. XoooooX...OOOOOOOOOOO.....X ..XXoX.OOOOOOOO",
"OOOOOOOOO..X. XooooXoX..OOOOOOOOOOOOO..   .XXooX...OOOOOOO",
"OOOOOOOO..X. .XXXX.XXX.OOOOOOOOOOOOOO.....XoooooX...OOOOOO",
"OOOOOOO..XoX ....XX....OOOOOOOOOOOOOOO....XXXXooXX..OOOOOO",
"OOOOOOO..oXX..XXoXXX. .OOOOOOOOOOOOO.. XXo...XXooX..OOOOOO",
"OOOOOO...XX..XXooX.. ..OOOOOOOOOOOO......XX. ..XX...OOOOOO",
"OOOOOO.... ..XooXX. ...OOOOOOOOOOOO......  .. .......OOOOO",
"OOOOOO.   .X.XooX..X .OOOOOO...OOOO....XXX............OOOO",
"OOOOOO....Xo.XoX..X. OO...O.....OOOO. ..XoXXXXX.....OOOOOO",
"OOOOOOO..XoX .XX.XX..O......X.......XX ..XooooooX.OOOOOOOO",
"OOOOOOO.XooX .X..XoX..X... .XoX...XoX..  .XXoooXX.OOOOOOOO",
"OOOOOOO.XooX ... XX...XXX.. XooX  .XX..XX...XXXX..OOOOOOOO",
"OOOOOOO.XooXX..  ... .XooXX..XoXX. ...XoX.. .....OOOOOOOOO",
"OOOOOOO.XoooXX.  ..XX .XXoXX.XXoX. ...XooXX. ....OOOOOOOOO",
"OOOOOOOO.XooXX  ..XXo ..XoXX...X.... .XoooXX....OOOOOOOOOO",
"OOOOOOOO.XXoX. ..XXoX..XXooXX ...X.. ..XooooX..OOOOOOOOOOO",
"OOOOOOOO..XX......XX. .XooooX ..XoX.. .XXooXX.OOOOOOOOOOOO",
"OOOOOOOO......OOO....  XXooXX ..XXoX. . XXXX.OOOOOOOOOOOOO",
"OOOOOOOO.....OOOOOO...  XXooX.  ..XXX.  . ....OOOOOOOOOOOO",
"OOOOOOOO...OOOOOOOO..X .XXXooX . .... . XX.....OOOOOOOOOOO",
"OOOOOOO.OOOOOOOOOOOO.Xo ..XXXXX.. ...  XooX...OOOOOOOOOOOO",
"OOOOOOOOOOOOOOOOOOOOO.Xo.. ...XoX...X..XoX...OOOOOOOOOOOOO",
"OOOOOOOOOOOOOOOOOOOOOO.XX..  .XoX...oX..X...OOOOOOOOOOOOOO",
"OOOOOOOOOOOOOOOOOOOOOO.........XXX..XoX....OOOOOOOOOOOOOOO",
"OOOOOOOOOOOOOOOOOOOOOOO....OOOO......XX..OOOOOOOOOOOOOOOOO",
"OOOOOOOOOOOOOOOOOOOOOOOOO..OOOOOO........OOOOOOOOOOOOOOOOO",
"OOOOOOOOOOOOOOOOOOOOOOOOOOO.OOOOOOOOO....OOOOOOOOOOOOOOOOO"
};
