/* XPM */
static char *result[] = {
/* columns rows colors chars-per-pixel */
"45 42 5 1 ",
"  c #D98309",
". c #FFA613",
"X c #FFE326",
"o c #FFF588",
"O c None",
/* pixels */
"OOOOOOOOOOOOOOO.OOOOOOOOOOOOOOOOOOOOOOOOOOOOO",
"OOOOOOOOOOOOOOO.OOOOOOOOOOOOOOOOOOOOOOOOOOOOO",
"OOOOOOOOOOOOOOO..OOOOOOOOOOOOOOOOOOOOOOOOOOOO",
"OOOOOOOOOOOOOOOO.OOOOOOOOOOOOOOO.OOOOOOOOOOOO",
"OOOOOOOOOOOOOOOO..OOOOOOOOOOOOO.OOOOOOOOOOOOO",
"OOOOOOOOOOOOOOOO..OOOOOOOOOOOO..OOOOOOOOOOOOO",
"OOOOOOOO.OOOOOOOO..OOOOOOOOOO..OOOOOOOOOOOOOO",
"OOOOOOOOO..OOOOOO..OOOOOOOOO..OOOOOOOOOOOOOOO",
"OOOOOOOOOO..OOOOO.X.OOOOOOO...OOOOOOOOOOOOOOO",
"OOOOOOOOOOO..OOOO.X..... ..X.OOOOOOOOOOOOOOOO",
"OOOOOOOOOOOO.OOOO.XXX. . .XX. OOOOOO.OOOOOOOO",
"OOOOOOOOOOOO..OO...XXX...XX. ..OOOO.OOOOOOO.O",
"OOOOOOOOOOOOO...  .XXXXXXoXX....OO.OOOOO...OO",
"OOOOOOOOOOOOO.X...XXoXXXXoXXX. ...OOOO...OOOO",
"OOOOOOOOOOOOO.XX.XXXXoXooXXXXXXXX.OO...OOOOOO",
"OOOOOOOOOOOOO..XXXXXooooooooooXX.....OOOOOOOO",
"OOOOOOOOOOOO...XXoXoooooooooXXX.....OOOOOOOOO",
"OOOOOOOOOO..XXXXXXoooooooooooXXX  .OOOOOOOOOO",
"OOOOOOOO..... XXXXoooooooooooXXX...OOOOOOOOOO",
"OOOOOOOOOOOO. .XXoooooooooooooXX...OOOOOOOOOO",
"OOOOOOOOOOOO...XXoooooooooooooXX  .OOOOOOOOOO",
"OOOOOOOOOOOO.. XXXooooooooooooXX...OOOOOOOOOO",
"OOOOOOOOOOOO. .XXooooooooooooXXX. .OOOOOOOOOO",
"OOOOOOOOOOOO.XXXooooooooooooooXX...OOOOOOOOOO",
"OOOOOOOOOOO.XXXoXXoooooooooooooXX.OOOOOOOOOOO",
"OOOOOOOOO.......XXXoooooooooXXXXXX.OOOOOOOOOO",
"OOOOOOOO.OOOO. ..ooXXoXooooXXX......OOOOOOOOO",
"OOOOOOOOOOOOOO..XXXXXoXXoXXXX.. .OO..OOOOOOOO",
"OOOOOOOOOOOOOOO.X.. XXXXoXXX.X..OOOOO.OOOOOOO",
"OOOOOOOOOOOOOO.X.. .XX..oX. ...OOOOOOOOOOOOOO",
"OOOOOOOOOOOOO...O...X. .XX......OOOOOOOOOOOOO",
"OOOOOOOOOOO...OOOOO......X..OO..OOOOOOOOOOOOO",
"OOOOOOOOOO...OOOOOOO.OOO...OOOO..OOOOOOOOOOOO",
"OOOOOOOOO..OOOOOOOOO.OOOO..OOOOO.OOOOOOOOOOOO",
"OOOOOOOO.OOOOOOOOOO.OOOOO..OOOOOO.OOOOOOOOOOO",
"OOOOOOOOOOOOOOOOOOO.OOOOOO..OOOOO..OOOOOOOOOO",
"OOOOOOOOOOOOOOOOOOOOOOOOOO..OOOOOO.OOOOOOOOOO",
"OOOOOOOOOOOOOOOOOOOOOOOOOOO.OOOOOOO.OOOOOOOOO",
"OOOOOOOOOOOOOOOOOOOOOOOOOOOO.OOOOOOO.OOOOOOOO",
"OOOOOOOOOOOOOOOOOOOOOOOOOOOO.OOOOOOOOOOOOOOOO",
"OOOOOOOOOOOOOOOOOOOOOOOOOOOOOOOOOOOOOOOOOOOOO",
"OOOOOOOOOOOOOOOOOOOOOOOOOOOOOOOOOOOOOOOOOOOOO"
};
