/* XPM */
static char *result[] = {
/* columns rows colors chars-per-pixel */
"43 51 14 1 ",
"  c black",
". c #222E32",
"X c #550000",
"o c #7E0000",
"O c #424D52",
"+ c #556064",
"@ c #687377",
"# c #A60000",
"$ c #DD3A3A",
"% c #B89402",
"& c #E6BE1D",
"* c #FFE375",
"= c #8D979A",
"- c None",
/* pixels */
"--------      ----------------      -------",
"------- X#$$#X -------------- X#$$#X ------",
"------- X#$$#X -------------- X#$$#X ------",
"------- X#$$#X -------------- X#$$#X ------",
"------- XX##XX -------------- XX##XX ------",
"------- %&**&% -------------- %&**&% ------",
"------- %&**&% -------------- %&**&% ------",
"------- XX##XX -------------- XX##XX ------",
"------- X#$$#X -------------- X#$$#X ------",
"------- X#$$#X -------------- X#$$#X ------",
"------- X#$$#X -------------- X#$$#X ------",
"--------      ----------------      -------",
"-------- .... ---------------- .... -------",
"-------- .++. ---------------- .++. -------",
"-------- .++. ---------------- .++. -------",
"-------- .++.                  .++. -------",
"-------- .++. ================ .++. -------",
"-------- .++. OOO==========OOO .++. -------",
"-------- .++. OOO@@@@@@@@@@OOO .++. -------",
"-------- .++. OOO@@@@@@@@@@OOO .++. -------",
"-------- .++. OOO@@@@@@@@@@OOO .++. -------",
"-------- .++. OOO@@@@@@@@@@OOO .++. -------",
"-------- .++. OOO@@@@@@@@@@OOO .++. -------",
"-------- .++. OOO@@@@@@@@@@OOO .++. -------",
"-------- .... OOO@@@    @@@OOO .... -------",
"-----            OO ==== OO            ----",
"----- o######### OO ==== OO #########o ----",
"----- o######### OO @@@@ OO #########o ----",
"----- o######### OO @@@@ OO #########o ----",
"----- o#########    @@@@    #########o ----",
"----- o#########$$$ @@@@ $$$#########o ----",
"----- o#$$$$$###### @@@@ ######$$$$$#o ----",
"----- o#XXXXX###### @@@@ ######XXXXX#o ----",
"----- o#$$$$$###### @@@@ ######$$$$$#o ----",
"----- o#XXXXX###XXX @@@@ XXX###XXXXX#o ----",
"----- o#$$$$$###    @@@@    ###$$$$$#o ----",
"----- o#XXXXX### OO @@@@ OO ###XXXXX#o ----",
"----- o#$$$$$### OO OOOO OO ###$$$$$#o ----",
"----- o#XXXXX### OO OOOO OO ###XXXXX#o ----",
"----- o######### OOO    OOO #########o ----",
"----- o######### O@@@@@@@@O #########o ----",
"----- o######### O@@@@@@@@O #########o ----",
"----- o######### O@@@@@@@@O #########o ----",
"----- o######### O@@@@@@@@O #########o ----",
"----- o######### O@@@@@@@@O #########o ----",
"----- o######### O@@@@@@@@O #########o ----",
"----- o######### O@@@@@@@@O #########o ----",
"----- o######### O@@@@@@@@O #########o ----",
"----- oooooooooo OOOOOOOOOO oooooooooo ----",
"------ oooooooo .OOOOOOOOOO. oooooooo -----",
"------                                -----"
};
