/* XPM */
static char *result[] = {
/* columns rows colors chars-per-pixel */
"33 33 8 1 ",
"  c #0C2535",
". c #3F4050",
"X c #5A606F",
"o c #6AACF0",
"O c #95909E",
"+ c #FAD49D",
"@ c #B2BAF3",
"# c None",
/* pixels */
"##########################ooooooo",
"############@@@@@@@@#############",
"#########@@@@@@@@@@@@@@##########",
"########@@@@@@@@@@@@@@@@#########",
"######@@@@@OO@@OO@@@OOOO@@#######",
"#####@@@@@O@@OXXOO@@OOOXXO@######",
"####@@@@@O@@OOOOOX@@OOOOOO@@#####",
"###@@@@OOO@@OOOOOO@@@OOOOO@@@####",
"###@@@OXXX@@@OOOOOOOXXXOO@@@@####",
"##O@@@XXXXX@@@OOOOO@@@O@@@@@@O###",
"#OO@@OXXOOOXOO@@@O@@@@@O@@@@OOO##",
"#OO@@OXOOOOXO@@@@O@@@@@O@@@@@OO##",
"#OO@@OXOOOOO@@@@@O@@@@OO@@@@@@O##",
"OO@@@OXOOOOO@@@@@OOOOO@@O@@@@@OO+",
"OO@@@OOXOOO@@@@OXXXX@@@@@O@@@OOO+",
"OO@@@@OOOO@@@@OOXXXX@@@@@@@@XOOO+",
"XX@@@@@@@@@@@@@OOXXXO@@@@@OXXOOO+",
"XXX@@@@OO@@@@@@OOOXXOO@@@XXXXOOO+",
"XXX..OOOO@@@@@@OOOOOXOOXXXXXOOOO+",
"XX..   .OO@@@OOOOOOOOOOOOOOOOOOO+",
"XX.  ....OOOOOOOOOOOOOOOOOOOXXOO+",
"#X   .   ..XXXXXXOOOOO....XXXXO##",
"#X   .    ...XXXXXOOO     XXXOO##",
"#X.  .     ...XXXX..      .XXOO##",
"##..  .    .....   .      .XXO###",
"###..  . ......    .      XXO####",
"###o.      ...     .     XXXo####",
"####o.              ..  XXXo#####",
"#####o.                .XXo######",
"######oo..           ...oo#######",
"########ooo...........oo#########",
"#########ooooo....ooooo##########",
"############oooooooo#############"
};
